<?xml version="1.0" encoding="UTF-8"?>
<svg id="_圖層_1" data-name="圖層 1" xmlns="http://www.w3.org/2000/svg" viewBox="0 0 129.74 142.18">
  <defs>
    <style>
      .cls-1 {
        fill: #fff;
      }
    </style>
  </defs>
  <g>
    <path class="cls-1" d="m7.82,121.88c.52-1.43,1.06-2.97,1.6-4.62.54-1.65,1.1-3.29,1.67-4.92.57-1.63,1.19-3.24,1.84-4.81.66-1.57,1.38-3.01,2.17-4.32.33-.53.75-1.01,1.28-1.45.52-.44,1.15-.65,1.87-.65.79,0,1.47.28,2.04.84.57.56.86,1.21.86,1.96,0,.25-.07.61-.2,1.07-.13.47-.28.97-.44,1.52-.17.54-.34,1.06-.52,1.54-.18.48-.34.85-.47,1.1-1.57,3.36-2.99,6.75-4.23,10.17-1.25,3.42-2.39,6.92-3.44,10.5-.17.69-.36,1.39-.59,2.12-.23.73-.57,1.38-1.03,1.94-.36.44-.81.79-1.35,1.05-.54.26-1.11.4-1.7.4-1.05,0-1.95-.37-2.71-1.1-.75-.73-1.4-1.68-1.94-2.85-.54-1.17-.98-2.47-1.3-3.92-.33-1.45-.58-2.87-.76-4.27-.18-1.4-.3-2.7-.37-3.9-.07-1.2-.1-2.15-.1-2.87,0-.47,0-1.11.02-1.94.02-.82.06-1.71.12-2.66.07-.95.18-1.91.34-2.87.16-.96.4-1.84.71-2.64.31-.79.71-1.44,1.21-1.94.49-.5,1.1-.75,1.82-.75.92,0,1.57.27,1.97.82.39.54.64,1.2.74,1.96.1.76.12,1.56.05,2.38-.07.82-.1,1.5-.1,2.03,0,1.87.05,3.72.15,5.55.1,1.84.28,3.67.54,5.51h.25Z"/>
    <path class="cls-1" d="m29.65,130.7c-.56.75-1.26,1.45-2.11,2.12s-1.89,1-3.14,1c-.89,0-1.64-.17-2.26-.51-.62-.34-1.14-.79-1.55-1.33-.41-.54-.71-1.14-.91-1.77-.2-.64-.29-1.25-.29-1.84,0-2.96.88-5.06,2.63-6.32,1.75-1.26,4.47-1.89,8.14-1.89.06-.34.11-.7.15-1.07.03-.37.05-.75.05-1.12,0-.81-.13-1.35-.39-1.61-.26-.26-.62-.35-1.06-.26-.44.09-.95.3-1.53.63-.57.33-1.16.67-1.75,1.03-.59.36-1.16.68-1.72.96-.56.28-1.05.42-1.48.42-.66,0-1.19-.19-1.6-.58-.41-.39-.61-.82-.61-1.28,0-.78.37-1.54,1.11-2.29s1.65-1.41,2.73-1.98c1.08-.58,2.22-1.03,3.42-1.38,1.2-.34,2.24-.51,3.12-.51,1.11,0,2.04.18,2.81.54.76.36,1.39.83,1.88,1.42.49.59.84,1.25,1.05,1.98.21.73.32,1.47.32,2.22,0,.9-.08,1.8-.25,2.68-.16.89-.35,1.78-.56,2.68-.21.9-.4,1.8-.56,2.71-.16.9-.25,1.8-.25,2.71,0,.68.13,1.19.39,1.52s.55.58.88.77c.33.19.62.37.88.56.26.19.39.48.39.89,0,.62-.27,1.1-.81,1.42s-1.19.49-1.94.49c-.59,0-1.12-.1-1.59-.3-.47-.2-.91-.45-1.32-.75-.41-.29-.8-.61-1.18-.96-.38-.34-.74-.67-1.1-.98Zm-2.93-2.89c.36-.62.67-1.25.93-1.89.26-.64.38-1.17.34-1.61-.59,0-1.1.12-1.53.35-.43.23-.78.53-1.06.89-.28.36-.48.75-.59,1.19-.12.44-.17.86-.17,1.26,0,.72.07,1.16.22,1.33.15.17.33.19.54.07.21-.12.43-.35.66-.68s.44-.63.64-.91Z"/>
    <path class="cls-1" d="m50.67,118.24c0-.4-.2-.71-.59-.91-.39-.2-.77-.3-1.13-.3-.69,0-1.26.24-1.72.72-.46.48-.83,1.07-1.11,1.75-.28.68-.48,1.39-.59,2.12-.12.73-.17,1.35-.17,1.84,0,.28.03.77.1,1.47.07.7.17,1.42.32,2.15s.35,1.37.62,1.91c.26.54.59.82.98.82.43,0,.86-.18,1.3-.54.44-.36.89-.75,1.35-1.17.46-.42.92-.81,1.38-1.17.46-.36.92-.54,1.38-.54.36,0,.68.1.96.3.28.2.52.45.71.75.2.3.34.61.44.96.1.34.15.67.15.98,0,.81-.29,1.56-.86,2.26-.57.7-1.28,1.32-2.12,1.87-.84.54-1.73.97-2.68,1.28-.95.31-1.79.47-2.51.47-1.51,0-2.77-.37-3.79-1.1-1.02-.73-1.84-1.64-2.46-2.73-.62-1.09-1.07-2.29-1.35-3.59-.28-1.31-.42-2.54-.42-3.69,0-1.28.19-2.64.57-4.08.38-1.45.96-2.79,1.75-4.04.79-1.24,1.77-2.27,2.95-3.08,1.18-.81,2.58-1.21,4.18-1.21.89,0,1.74.16,2.56.47.82.31,1.54.74,2.16,1.28.62.54,1.12,1.18,1.5,1.91.38.73.57,1.53.57,2.4,0,.56-.1,1.16-.29,1.8s-.48,1.22-.86,1.75c-.38.53-.84.97-1.38,1.33-.54.36-1.16.54-1.85.54-.62,0-1.2-.2-1.72-.61-.53-.4-.79-.92-.79-1.54,0-.53.13-.87.39-1.03.26-.16.54-.28.84-.37.3-.09.57-.23.84-.4.26-.17.39-.52.39-1.05Z"/>
    <path class="cls-1" d="m67.48,130.7c-.56.75-1.26,1.45-2.11,2.12s-1.89,1-3.14,1c-.89,0-1.64-.17-2.26-.51-.62-.34-1.14-.79-1.55-1.33-.41-.54-.71-1.14-.91-1.77-.2-.64-.29-1.25-.29-1.84,0-2.96.88-5.06,2.63-6.32,1.75-1.26,4.47-1.89,8.14-1.89.06-.34.11-.7.15-1.07.03-.37.05-.75.05-1.12,0-.81-.13-1.35-.39-1.61-.26-.26-.62-.35-1.06-.26-.44.09-.95.3-1.53.63-.57.33-1.16.67-1.75,1.03-.59.36-1.16.68-1.72.96-.56.28-1.05.42-1.48.42-.66,0-1.19-.19-1.6-.58-.41-.39-.61-.82-.61-1.28,0-.78.37-1.54,1.11-2.29s1.65-1.41,2.73-1.98c1.08-.58,2.22-1.03,3.42-1.38,1.2-.34,2.24-.51,3.12-.51,1.11,0,2.04.18,2.81.54.76.36,1.39.83,1.88,1.42.49.59.84,1.25,1.05,1.98.21.73.32,1.47.32,2.22,0,.9-.08,1.8-.25,2.68-.16.89-.35,1.78-.56,2.68-.21.9-.4,1.8-.56,2.71-.16.9-.25,1.8-.25,2.71,0,.68.13,1.19.39,1.52s.55.58.88.77c.33.19.62.37.88.56.26.19.39.48.39.89,0,.62-.27,1.1-.81,1.42s-1.19.49-1.94.49c-.59,0-1.12-.1-1.59-.3-.47-.2-.91-.45-1.32-.75-.41-.29-.8-.61-1.18-.96-.38-.34-.74-.67-1.1-.98Zm-2.93-2.89c.36-.62.67-1.25.93-1.89.26-.64.38-1.17.34-1.61-.59,0-1.1.12-1.53.35-.43.23-.78.53-1.06.89-.28.36-.48.75-.59,1.19-.12.44-.17.86-.17,1.26,0,.72.07,1.16.22,1.33.15.17.33.19.54.07.21-.12.43-.35.66-.68s.44-.63.64-.91Z"/>
    <path class="cls-1" d="m83.2,128.13c-.13.53-.29,1.24-.47,2.15-.18.9-.4,1.87-.66,2.92-.26,1.04-.57,2.09-.91,3.15s-.74,2.02-1.18,2.89c-.44.87-.95,1.58-1.53,2.12-.57.54-1.21.82-1.89.82-.95,0-1.75-.3-2.41-.89-.66-.59-.98-1.34-.98-2.24,0-.19.12-.72.37-1.61s.53-1.88.86-2.99c.33-1.1.63-2.16.91-3.17.28-1.01.47-1.72.57-2.12.39-1.68.71-3.37.93-5.06.23-1.7.34-3.4.34-5.11,0-1.46-.16-2.9-.47-4.32-.31-1.42-.47-2.76-.47-4.04,0-.72.22-1.32.66-1.82.44-.5,1.04-.75,1.8-.75.49,0,.93.11,1.3.33.38.22.71.5,1.01.84.29.34.55.72.76,1.12.21.4.42.79.61,1.17.59-.56,1.16-1.1,1.72-1.63.56-.53,1.14-.99,1.75-1.38.61-.39,1.27-.71,1.99-.96.72-.25,1.54-.37,2.46-.37,1.21,0,2.28.3,3.2.89.92.59,1.69,1.34,2.31,2.24.62.9,1.08,1.9,1.38,2.99.29,1.09.44,2.13.44,3.13,0,1.37-.19,2.82-.57,4.36s-.97,2.96-1.77,4.27-1.83,2.39-3.07,3.24c-1.25.86-2.72,1.28-4.43,1.28-.82,0-1.62-.13-2.39-.4-.77-.26-1.5-.61-2.19-1.05Zm7.97-12.55c0-.19-.03-.45-.1-.79-.07-.34-.16-.68-.27-1.03-.12-.34-.25-.64-.42-.89-.16-.25-.36-.37-.59-.37-.62,0-1.29.35-1.99,1.05-.71.7-1.36,1.52-1.97,2.45-.61.93-1.11,1.87-1.5,2.82-.39.95-.59,1.67-.59,2.17,0,.28.1.54.29.77.2.23.43.44.71.63.28.19.57.33.89.44.31.11.6.16.86.16.72,0,1.38-.28,1.97-.84.59-.56,1.08-1.24,1.48-2.03.39-.79.7-1.61.91-2.45.21-.84.32-1.54.32-2.1Z"/>
    <path class="cls-1" d="m110.28,130.7c-.56.75-1.26,1.45-2.11,2.12s-1.89,1-3.14,1c-.89,0-1.64-.17-2.26-.51-.62-.34-1.14-.79-1.55-1.33-.41-.54-.71-1.14-.91-1.77-.2-.64-.29-1.25-.29-1.84,0-2.96.88-5.06,2.63-6.32,1.75-1.26,4.47-1.89,8.14-1.89.06-.34.11-.7.15-1.07.03-.37.05-.75.05-1.12,0-.81-.13-1.35-.39-1.61-.26-.26-.62-.35-1.06-.26-.44.09-.95.3-1.53.63-.57.33-1.16.67-1.75,1.03-.59.36-1.16.68-1.72.96-.56.28-1.05.42-1.48.42-.66,0-1.19-.19-1.6-.58-.41-.39-.61-.82-.61-1.28,0-.78.37-1.54,1.11-2.29s1.65-1.41,2.73-1.98c1.08-.58,2.22-1.03,3.42-1.38,1.2-.34,2.24-.51,3.12-.51,1.11,0,2.04.18,2.81.54.76.36,1.39.83,1.88,1.42.49.59.84,1.25,1.05,1.98.21.73.32,1.47.32,2.22,0,.9-.08,1.8-.25,2.68-.16.89-.35,1.78-.56,2.68-.21.9-.4,1.8-.56,2.71-.16.9-.25,1.8-.25,2.71,0,.68.13,1.19.39,1.52s.55.58.88.77c.33.19.62.37.88.56.26.19.39.48.39.89,0,.62-.27,1.1-.81,1.42s-1.19.49-1.94.49c-.59,0-1.12-.1-1.59-.3-.47-.2-.91-.45-1.32-.75-.41-.29-.8-.61-1.18-.96-.38-.34-.74-.67-1.1-.98Zm-2.93-2.89c.36-.62.67-1.25.93-1.89.26-.64.38-1.17.34-1.61-.59,0-1.1.12-1.53.35-.43.23-.78.53-1.06.89-.28.36-.48.75-.59,1.19-.12.44-.17.86-.17,1.26,0,.72.07,1.16.22,1.33.15.17.33.19.54.07.21-.12.43-.35.66-.68s.44-.63.64-.91Z"/>
    <path class="cls-1" d="m122.46,102.79c.43-.75.89-1.34,1.4-1.77.51-.44,1.09-.65,1.75-.65.75,0,1.45.2,2.09.61.64.4,1.01.98,1.11,1.73.07.47.02,1.24-.12,2.33-.15,1.09-.32,2.37-.52,3.85-.2,1.48-.39,3.1-.57,4.85-.18,1.76-.25,3.57-.22,5.44.03,1.87.19,3.73.47,5.58.28,1.85.78,3.59,1.5,5.2.1.22.19.43.27.63.08.2.12.43.12.68,0,.62-.26,1.17-.79,1.63-.53.47-1.12.67-1.77.61-.49-.06-.98-.19-1.45-.4-.48-.2-.89-.51-1.25-.91-.85-.93-1.6-2.12-2.24-3.55-.64-1.43-1.17-3-1.57-4.71-.41-1.71-.7-3.52-.86-5.41-.17-1.9-.18-3.77-.05-5.62.13-1.85.42-3.65.86-5.39.44-1.74,1.06-3.31,1.84-4.71Z"/>
  </g>
  <path class="cls-1" d="m99.28,0H29.28c-6.6,0-12,5.4-12,12v51c0,6.6,5.4,12,12,12h10.04l-3.85,14.2c-.44,1.62,1.47,2.83,2.75,1.75l18.8-15.95h42.26c6.6,0,12-5.4,12-12V12c0-6.6-5.4-12-12-12ZM33.42,56.74c-2.33-1.54-4.65-3.1-6.97-4.66-.03-.02-.05-.06-.1-.11.46-.73.91-1.47,1.39-2.19.06-.08.27-.12.4-.1,3.35.59,6.69,1.19,10.04,1.8.75.13,1.49.28,2.24.42.02.04.03.07.05.11-.21.16-.42.33-.64.48-1.96,1.41-3.92,2.82-5.9,4.22-.12.08-.39.11-.5.04ZM99.44,21.37c-.25,1.03-.86,1.88-1.46,2.73-1.12,1.58-2.57,2.77-4.19,3.83-5.05,3.28-10.05,6.63-15.08,9.96-5.84,3.87-11.67,7.73-17.51,11.6-2.84,1.88-5.68,3.78-8.53,5.65-.37.25-.81.42-1.25.54-5.26,1.51-10.62,2.42-16.11,2.45-.22,0-.44,0-.66,0,0-.05,0-.09,0-.14,6.83-4.64,13.65-9.28,20.57-13.99-4.93-3.41-9.86-6.81-14.79-10.22.6-1.18,1.16-2.3,1.74-3.41.05-.1.25-.18.36-.17,6.49.74,12.98,1.49,19.47,2.24,2.85.33,5.71.66,8.56.98.19.02.42-.04.58-.14,6.62-4.31,13.22-8.65,19.87-12.92,1.96-1.26,4.17-1.92,6.54-1.81.88.04,1.72.33,1.96,1.3.12.48.05,1.05-.06,1.54Z"/>
</svg>