<?xml version="1.0" encoding="UTF-8"?>
<svg id="_圖層_1" data-name="圖層 1" xmlns="http://www.w3.org/2000/svg" viewBox="0 0 94 91.36">
  <defs>
    <style>
      .cls-1 {
        fill: #fff;
      }
    </style>
  </defs>
  <path class="cls-1" d="m82,0H12C5.4,0,0,5.4,0,12v51c0,6.6,5.4,12,12,12h10.04l-3.85,14.2c-.44,1.62,1.47,2.83,2.75,1.75l18.8-15.95h42.26c6.6,0,12-5.4,12-12V12c0-6.6-5.4-12-12-12ZM16.14,56.74c-2.33-1.54-4.65-3.1-6.97-4.66-.03-.02-.05-.06-.1-.11.46-.73.91-1.47,1.39-2.19.06-.08.27-.12.4-.1,3.35.59,6.69,1.19,10.04,1.8.75.13,1.49.28,2.24.42.02.04.03.07.05.11-.21.16-.42.33-.64.48-1.96,1.41-3.92,2.82-5.9,4.22-.12.08-.39.11-.5.04ZM82.16,21.37c-.25,1.03-.86,1.88-1.46,2.73-1.12,1.58-2.57,2.77-4.19,3.83-5.05,3.28-10.05,6.63-15.08,9.96-5.84,3.87-11.67,7.73-17.51,11.6-2.84,1.88-5.68,3.78-8.53,5.65-.37.25-.81.42-1.25.54-5.26,1.51-10.62,2.42-16.11,2.45-.22,0-.44,0-.66,0,0-.05,0-.09,0-.14,6.83-4.64,13.65-9.28,20.57-13.99-4.93-3.41-9.86-6.81-14.79-10.22.6-1.18,1.16-2.3,1.74-3.41.05-.1.25-.18.36-.17,6.49.74,12.98,1.49,19.47,2.24,2.85.33,5.71.66,8.56.98.19.02.42-.04.58-.14,6.62-4.31,13.22-8.65,19.87-12.92,1.96-1.26,4.17-1.92,6.54-1.81.88.04,1.72.33,1.96,1.3.12.48.05,1.05-.06,1.54Z"/>
</svg>