<?xml version="1.0" encoding="utf-8"?>
<!-- Generator: Adobe Illustrator 27.5.0, SVG Export Plug-In . SVG Version: 6.00 Build 0)  -->
<svg version="1.1" id="_圖層_1" xmlns="http://www.w3.org/2000/svg" xmlns:xlink="http://www.w3.org/1999/xlink" x="0px" y="0px"
	 viewBox="0 0 174.6 44.1" style="enable-background:new 0 0 174.6 44.1;" xml:space="preserve">
<style type="text/css">
	.st0{fill:#FFFFFF;}
</style>
<path class="st0" d="M7.8,21.5c0.5-1.4,1.1-3,1.6-4.6c0.5-1.6,1.1-3.3,1.7-4.9s1.2-3.2,1.8-4.8c0.7-1.6,1.4-3,2.2-4.3
	c0.3-0.5,0.8-1,1.3-1.5c0.5-0.4,1.1-0.6,1.9-0.6c0.8,0,1.5,0.3,2,0.8s0.9,1.2,0.9,2c0,0.2-0.1,0.6-0.2,1.1c-0.1,0.5-0.3,1-0.4,1.5
	c-0.2,0.5-0.3,1.1-0.5,1.5s-0.3,0.9-0.5,1.1c-1.6,3.4-3,6.8-4.2,10.2c-1.2,3.4-2.4,6.9-3.4,10.5c-0.2,0.7-0.4,1.4-0.6,2.1
	c-0.2,0.7-0.6,1.4-1,1.9c-0.4,0.4-0.8,0.8-1.4,1s-1.1,0.4-1.7,0.4c-1.1,0-1.9-0.4-2.7-1.1c-0.8-0.7-1.4-1.7-1.9-2.9s-1-2.5-1.3-3.9
	c-0.3-1.5-0.6-2.9-0.8-4.3c-0.2-1.4-0.3-2.7-0.4-3.9C0,17.7,0,16.8,0,16c0-0.5,0-1.1,0-1.9c0-0.8,0.1-1.7,0.1-2.7
	c0.1-0.9,0.2-1.9,0.3-2.9s0.4-1.8,0.7-2.6C1.5,5.1,1.9,4.5,2.4,4c0.5-0.5,1.1-0.8,1.8-0.8c0.9,0,1.6,0.3,2,0.8
	c0.4,0.5,0.6,1.2,0.7,2S7.1,7.6,7,8.4c-0.1,0.8-0.1,1.5-0.1,2c0,1.9,0.1,3.7,0.2,5.6c0.1,1.8,0.3,3.7,0.5,5.5L7.8,21.5L7.8,21.5z"/>
<path class="st0" d="M29.6,30.3c-0.6,0.8-1.3,1.5-2.1,2.1c-0.9,0.7-1.9,1-3.1,1c-0.9,0-1.6-0.2-2.3-0.5s-1.1-0.8-1.5-1.3
	c-0.4-0.5-0.7-1.1-0.9-1.8c-0.2-0.6-0.3-1.2-0.3-1.8c0-3,0.9-5.1,2.6-6.3c1.8-1.3,4.5-1.9,8.1-1.9c0.1-0.3,0.1-0.7,0.1-1.1
	c0-0.4,0-0.8,0-1.1c0-0.8-0.1-1.4-0.4-1.6c-0.3-0.3-0.6-0.4-1.1-0.3c-0.4,0.1-1,0.3-1.5,0.6c-0.6,0.3-1.2,0.7-1.8,1s-1.2,0.7-1.7,1
	c-0.6,0.3-1,0.4-1.5,0.4c-0.7,0-1.2-0.2-1.6-0.6s-0.6-0.8-0.6-1.3c0-0.8,0.4-1.5,1.1-2.3s1.6-1.4,2.7-2c1.1-0.6,2.2-1,3.4-1.4
	c1.2-0.3,2.2-0.5,3.1-0.5c1.1,0,2,0.2,2.8,0.5c0.8,0.4,1.4,0.8,1.9,1.4s0.8,1.2,1,2s0.3,1.5,0.3,2.2c0,0.9-0.1,1.8-0.2,2.7
	c-0.2,0.9-0.3,1.8-0.6,2.7c-0.2,0.9-0.4,1.8-0.6,2.7c-0.2,0.9-0.2,1.8-0.2,2.7c0,0.7,0.1,1.2,0.4,1.5s0.5,0.6,0.9,0.8
	s0.6,0.4,0.9,0.6c0.3,0.2,0.4,0.5,0.4,0.9c0,0.6-0.3,1.1-0.8,1.4s-1.2,0.5-1.9,0.5c-0.6,0-1.1-0.1-1.6-0.3s-0.9-0.5-1.3-0.8
	c-0.4-0.3-0.8-0.6-1.2-1C30.4,31,30,30.7,29.6,30.3L29.6,30.3z M26.7,27.4c0.4-0.6,0.7-1.2,0.9-1.9s0.4-1.2,0.3-1.6
	c-0.6,0-1.1,0.1-1.5,0.4s-0.8,0.5-1.1,0.9c-0.3,0.4-0.5,0.8-0.6,1.2c-0.1,0.4-0.2,0.9-0.2,1.3c0,0.7,0.1,1.2,0.2,1.3
	s0.3,0.2,0.5,0.1c0.2-0.1,0.4-0.4,0.7-0.7S26.5,27.7,26.7,27.4L26.7,27.4z"/>
<path class="st0" d="M50.7,17.9c0-0.4-0.2-0.7-0.6-0.9s-0.8-0.3-1.1-0.3c-0.7,0-1.3,0.2-1.7,0.7c-0.5,0.5-0.8,1.1-1.1,1.8
	s-0.5,1.4-0.6,2.1c-0.1,0.7-0.2,1.4-0.2,1.8c0,0.3,0,0.8,0.1,1.5c0.1,0.7,0.2,1.4,0.3,2.1s0.3,1.4,0.6,1.9c0.3,0.5,0.6,0.8,1,0.8
	c0.4,0,0.9-0.2,1.3-0.5s0.9-0.8,1.3-1.2s0.9-0.8,1.4-1.2c0.5-0.4,0.9-0.5,1.4-0.5c0.4,0,0.7,0.1,1,0.3c0.3,0.2,0.5,0.5,0.7,0.8
	c0.2,0.3,0.3,0.6,0.4,1c0.1,0.3,0.2,0.7,0.2,1c0,0.8-0.3,1.6-0.9,2.3s-1.3,1.3-2.1,1.9c-0.8,0.5-1.7,1-2.7,1.3
	c-1,0.3-1.8,0.5-2.5,0.5c-1.5,0-2.8-0.4-3.8-1.1s-1.8-1.6-2.5-2.7s-1.1-2.3-1.3-3.6c-0.3-1.3-0.4-2.5-0.4-3.7c0-1.3,0.2-2.6,0.6-4.1
	c0.4-1.5,1-2.8,1.8-4c0.8-1.2,1.8-2.3,3-3.1s2.6-1.2,4.2-1.2c0.9,0,1.7,0.2,2.6,0.5s1.5,0.7,2.2,1.3s1.1,1.2,1.5,1.9
	s0.6,1.5,0.6,2.4c0,0.6-0.1,1.2-0.3,1.8s-0.5,1.2-0.9,1.8s-0.8,1-1.4,1.3s-1.2,0.5-1.8,0.5c-0.6,0-1.2-0.2-1.7-0.6
	c-0.5-0.4-0.8-0.9-0.8-1.5c0-0.5,0.1-0.9,0.4-1s0.5-0.3,0.8-0.4s0.6-0.2,0.8-0.4C50.5,18.7,50.7,18.4,50.7,17.9L50.7,17.9z"/>
<path class="st0" d="M67.5,30.3c-0.6,0.8-1.3,1.5-2.1,2.1c-0.8,0.7-1.9,1-3.1,1c-0.9,0-1.6-0.2-2.3-0.5s-1.1-0.8-1.5-1.3
	c-0.4-0.5-0.7-1.1-0.9-1.8c-0.2-0.6-0.3-1.2-0.3-1.8c0-3,0.9-5.1,2.6-6.3s4.5-1.9,8.1-1.9c0.1-0.3,0.1-0.7,0.2-1.1
	c0-0.4,0.1-0.8,0.1-1.1c0-0.8-0.1-1.4-0.4-1.6c-0.3-0.3-0.6-0.4-1.1-0.3c-0.4,0.1-0.9,0.3-1.5,0.6c-0.6,0.3-1.2,0.7-1.8,1
	c-0.6,0.4-1.2,0.7-1.7,1c-0.6,0.3-1,0.4-1.5,0.4c-0.7,0-1.2-0.2-1.6-0.6s-0.6-0.8-0.6-1.3c0-0.8,0.4-1.5,1.1-2.3s1.7-1.4,2.7-2
	c1.1-0.6,2.2-1,3.4-1.4c1.2-0.3,2.2-0.5,3.1-0.5c1.1,0,2,0.2,2.8,0.5c0.8,0.4,1.4,0.8,1.9,1.4s0.8,1.2,1.1,2
	c0.2,0.7,0.3,1.5,0.3,2.2c0,0.9-0.1,1.8-0.2,2.7c-0.2,0.9-0.3,1.8-0.6,2.7s-0.4,1.8-0.6,2.7c-0.2,0.9-0.2,1.8-0.2,2.7
	c0,0.7,0.1,1.2,0.4,1.5s0.6,0.6,0.9,0.8c0.3,0.2,0.6,0.4,0.9,0.6c0.3,0.2,0.4,0.5,0.4,0.9c0,0.6-0.3,1.1-0.8,1.4s-1.2,0.5-1.9,0.5
	c-0.6,0-1.1-0.1-1.6-0.3c-0.5-0.2-0.9-0.5-1.3-0.8c-0.4-0.3-0.8-0.6-1.2-1C68.2,31,67.8,30.7,67.5,30.3L67.5,30.3z M64.6,27.4
	c0.4-0.6,0.7-1.2,0.9-1.9s0.4-1.2,0.3-1.6c-0.6,0-1.1,0.1-1.5,0.4s-0.8,0.5-1.1,0.9c-0.3,0.4-0.5,0.8-0.6,1.2
	c-0.1,0.4-0.2,0.9-0.2,1.3c0,0.7,0.1,1.2,0.2,1.3s0.3,0.2,0.5,0.1s0.4-0.4,0.7-0.7S64.3,27.7,64.6,27.4L64.6,27.4z"/>
<path class="st0" d="M83.2,27.8c-0.1,0.5-0.3,1.2-0.5,2.1c-0.2,0.9-0.4,1.9-0.7,2.9c-0.3,1-0.6,2.1-0.9,3.2s-0.7,2-1.2,2.9
	S79,40.5,78.4,41c-0.6,0.5-1.2,0.8-1.9,0.8c-0.9,0-1.8-0.3-2.4-0.9s-1-1.3-1-2.2c0-0.2,0.1-0.7,0.4-1.6s0.5-1.9,0.9-3
	c0.3-1.1,0.6-2.2,0.9-3.2c0.3-1,0.5-1.7,0.6-2.1c0.4-1.7,0.7-3.4,0.9-5.1c0.2-1.7,0.3-3.4,0.3-5.1c0-1.5-0.2-2.9-0.5-4.3
	s-0.5-2.8-0.5-4c0-0.7,0.2-1.3,0.7-1.8s1-0.8,1.8-0.8c0.5,0,0.9,0.1,1.3,0.3c0.4,0.2,0.7,0.5,1,0.8c0.3,0.3,0.6,0.7,0.8,1.1
	s0.4,0.8,0.6,1.2c0.6-0.6,1.2-1.1,1.7-1.6s1.1-1,1.8-1.4c0.6-0.4,1.3-0.7,2-1s1.5-0.4,2.5-0.4c1.2,0,2.3,0.3,3.2,0.9
	s1.7,1.3,2.3,2.2c0.6,0.9,1.1,1.9,1.4,3c0.3,1.1,0.4,2.1,0.4,3.1c0,1.4-0.2,2.8-0.6,4.4s-1,3-1.8,4.3s-1.8,2.4-3.1,3.2
	c-1.2,0.9-2.7,1.3-4.4,1.3c-0.8,0-1.6-0.1-2.4-0.4C84.6,28.6,83.9,28.2,83.2,27.8L83.2,27.8z M91.2,15.2c0-0.2,0-0.4-0.1-0.8
	s-0.2-0.7-0.3-1c-0.1-0.3-0.2-0.6-0.4-0.9c-0.2-0.2-0.4-0.4-0.6-0.4c-0.6,0-1.3,0.4-2,1.1c-0.7,0.7-1.4,1.5-2,2.4s-1.1,1.9-1.5,2.8
	s-0.6,1.7-0.6,2.2c0,0.3,0.1,0.5,0.3,0.8c0.2,0.2,0.4,0.4,0.7,0.6c0.3,0.2,0.6,0.3,0.9,0.4c0.3,0.1,0.6,0.2,0.9,0.2
	c0.7,0,1.4-0.3,2-0.8c0.6-0.6,1.1-1.2,1.5-2c0.4-0.8,0.7-1.6,0.9-2.5C91.1,16.5,91.2,15.8,91.2,15.2L91.2,15.2z"/>
<path class="st0" d="M110.3,30.3c-0.6,0.8-1.3,1.5-2.1,2.1c-0.8,0.7-1.9,1-3.1,1c-0.9,0-1.6-0.2-2.3-0.5s-1.1-0.8-1.6-1.3
	c-0.4-0.5-0.7-1.1-0.9-1.8c-0.2-0.6-0.3-1.2-0.3-1.8c0-3,0.9-5.1,2.6-6.3s4.5-1.9,8.1-1.9c0.1-0.3,0.1-0.7,0.2-1.1
	c0-0.4,0.1-0.8,0.1-1.1c0-0.8-0.1-1.4-0.4-1.6c-0.3-0.3-0.6-0.4-1.1-0.3c-0.4,0.1-0.9,0.3-1.5,0.6c-0.6,0.3-1.2,0.7-1.8,1
	s-1.2,0.7-1.7,1c-0.6,0.3-1.1,0.4-1.5,0.4c-0.7,0-1.2-0.2-1.6-0.6c-0.4-0.4-0.6-0.8-0.6-1.3c0-0.8,0.4-1.5,1.1-2.3s1.7-1.4,2.7-2
	c1.1-0.6,2.2-1,3.4-1.4c1.2-0.3,2.2-0.5,3.1-0.5c1.1,0,2,0.2,2.8,0.5c0.8,0.4,1.4,0.8,1.9,1.4s0.8,1.2,1.1,2
	c0.2,0.7,0.3,1.5,0.3,2.2c0,0.9-0.1,1.8-0.2,2.7c-0.2,0.9-0.3,1.8-0.6,2.7s-0.4,1.8-0.6,2.7c-0.2,0.9-0.2,1.8-0.2,2.7
	c0,0.7,0.1,1.2,0.4,1.5s0.6,0.6,0.9,0.8c0.3,0.2,0.6,0.4,0.9,0.6c0.3,0.2,0.4,0.5,0.4,0.9c0,0.6-0.3,1.1-0.8,1.4s-1.2,0.5-1.9,0.5
	c-0.6,0-1.1-0.1-1.6-0.3c-0.5-0.2-0.9-0.5-1.3-0.8c-0.4-0.3-0.8-0.6-1.2-1C111,31,110.6,30.7,110.3,30.3L110.3,30.3z M107.3,27.4
	c0.4-0.6,0.7-1.2,0.9-1.9s0.4-1.2,0.3-1.6c-0.6,0-1.1,0.1-1.5,0.4s-0.8,0.5-1.1,0.9c-0.3,0.4-0.5,0.8-0.6,1.2
	c-0.1,0.4-0.2,0.9-0.2,1.3c0,0.7,0.1,1.2,0.2,1.3s0.3,0.2,0.5,0.1s0.4-0.4,0.7-0.7S107.1,27.7,107.3,27.4L107.3,27.4z"/>
<path class="st0" d="M122.5,2.4c0.4-0.8,0.9-1.3,1.4-1.8c0.5-0.4,1.1-0.6,1.8-0.6c0.8,0,1.4,0.2,2.1,0.6c0.6,0.4,1,1,1.1,1.7
	c0.1,0.5,0,1.2-0.1,2.3c-0.1,1.1-0.3,2.4-0.5,3.9s-0.4,3.1-0.6,4.9c-0.2,1.8-0.2,3.6-0.2,5.4s0.2,3.7,0.5,5.6
	c0.3,1.9,0.8,3.6,1.5,5.2c0.1,0.2,0.2,0.4,0.3,0.6c0.1,0.2,0.1,0.4,0.1,0.7c0,0.6-0.3,1.2-0.8,1.6c-0.5,0.5-1.1,0.7-1.8,0.6
	c-0.5-0.1-1-0.2-1.4-0.4c-0.5-0.2-0.9-0.5-1.2-0.9c-0.8-0.9-1.6-2.1-2.2-3.5s-1.2-3-1.6-4.7c-0.4-1.7-0.7-3.5-0.9-5.4
	c-0.2-1.9-0.2-3.8-0.1-5.6s0.4-3.7,0.9-5.4S121.7,3.9,122.5,2.4L122.5,2.4z"/>
<path class="st0" d="M170.4,0h-24.6c-2.3,0-4.2,1.9-4.2,4.2v18c0,2.3,1.9,4.2,4.2,4.2h3.5l-1.4,5c-0.2,0.6,0.5,1,1,0.6l6.6-5.6h14.9
	c2.3,0,4.2-1.9,4.2-4.2v-18C174.6,1.9,172.7,0,170.4,0z M147.2,20c-0.8-0.5-1.6-1.1-2.5-1.6c0,0,0,0,0,0c0.2-0.3,0.3-0.5,0.5-0.8
	c0,0,0.1,0,0.1,0c1.2,0.2,2.4,0.4,3.5,0.6c0.3,0,0.5,0.1,0.8,0.1c0,0,0,0,0,0c-0.1,0.1-0.1,0.1-0.2,0.2c-0.7,0.5-1.4,1-2.1,1.5
	C147.3,20,147.2,20,147.2,20z M170.4,7.5c-0.1,0.4-0.3,0.7-0.5,1c-0.4,0.6-0.9,1-1.5,1.3c-1.8,1.2-3.5,2.3-5.3,3.5
	c-2.1,1.4-4.1,2.7-6.2,4.1c-1,0.7-2,1.3-3,2c-0.1,0.1-0.3,0.1-0.4,0.2c-1.9,0.5-3.7,0.9-5.7,0.9c-0.1,0-0.2,0-0.2,0c0,0,0,0,0,0
	c2.4-1.6,4.8-3.3,7.2-4.9c-1.7-1.2-3.5-2.4-5.2-3.6c0.2-0.4,0.4-0.8,0.6-1.2c0,0,0.1-0.1,0.1-0.1c2.3,0.3,4.6,0.5,6.9,0.8
	c1,0.1,2,0.2,3,0.3c0.1,0,0.1,0,0.2,0c2.3-1.5,4.7-3,7-4.5c0.7-0.4,1.5-0.7,2.3-0.6c0.3,0,0.6,0.1,0.7,0.5
	C170.5,7.2,170.5,7.4,170.4,7.5z"/>
</svg>
